<?xml version="1.0" encoding="UTF-8" standalone="no"?>
<svg xmlns:ffdec="https://www.free-decompiler.com/flash" xmlns:xlink="http://www.w3.org/1999/xlink" ffdec:objectType="shape" height="20.0px" width="20.0px" xmlns="http://www.w3.org/2000/svg">
  <g transform="matrix(1.0, 0.0, 0.0, 1.0, 10.0, 10.0)">
    <path d="M8.1 -5.0 Q9.5 -2.8 9.5 0.0 9.5 3.9 6.7 6.75 3.9 9.5 0.0 9.5 -3.9 9.5 -6.7 6.75 -9.5 3.9 -9.5 0.0 -9.5 -2.8 -8.05 -5.0 L-6.7 -6.7 Q-3.9 -9.5 0.0 -9.5 3.9 -9.5 6.7 -6.7 L8.1 -5.0" fill="#cccccc" fill-rule="evenodd" stroke="none"/>
    <path d="M8.1 -5.0 Q9.5 -2.8 9.5 0.0 9.5 3.9 6.7 6.75 3.9 9.5 0.0 9.5 -3.9 9.5 -6.7 6.75 -9.5 3.9 -9.5 0.0 -9.5 -2.8 -8.05 -5.0 L-6.7 -6.7 Q-3.9 -9.5 0.0 -9.5 3.9 -9.5 6.7 -6.7 L8.1 -5.0 Z" fill="none" stroke="#909090" stroke-linecap="round" stroke-linejoin="round" stroke-width="1.0"/>
  </g>
</svg>
